<?xml version="1.0" encoding="UTF-8"?>
<svg version="1.1" xmlns="http://www.w3.org/2000/svg" width="381" height="378">
<path d="M0 0 C125.73 0 251.46 0 381 0 C381 124.74 381 249.48 381 378 C255.27 378 129.54 378 0 378 C0 253.26 0 128.52 0 0 Z " fill="#6A0DAD" transform="translate(0,0)"/>
<path d="M0 0 C7.23473788 6.52390119 11.93928395 15.82759991 12.52734375 25.5546875 C12.96606117 43.70145663 7.07534989 54.5980392 -5.1171875 67.91796875 C-7.02624603 69.90177957 -8.95129286 71.83403351 -10.9296875 73.74609375 C-23.30649952 85.7272755 -29.32655516 94.61631079 -30.7109375 112.61328125 C-40.2809375 112.61328125 -49.8509375 112.61328125 -59.7109375 112.61328125 C-60.32060437 92.61620795 -58.18167912 80.72043338 -44.7109375 65.61328125 C-41.99272545 62.7729768 -39.15541306 60.05558878 -36.33203125 57.3203125 C-29.64625121 50.41532655 -23.46859571 43.08803115 -23.2734375 33.23828125 C-23.32571467 27.71843576 -23.32571467 27.71843576 -25.8359375 22.98828125 C-32.11569248 17.80065757 -37.25112368 17.06316967 -45.1484375 17.11328125 C-46.60419189 17.11642334 -46.60419189 17.11642334 -48.08935547 17.11962891 C-57.46526038 17.32267793 -65.58419506 19.38754053 -73.921875 23.77734375 C-75.7109375 24.61328125 -75.7109375 24.61328125 -78.7109375 24.61328125 C-81.6809375 16.69328125 -84.6509375 8.77328125 -87.7109375 0.61328125 C-67.63755279 -19.46010346 -20.77140953 -16.83527485 0 0 Z " fill="#FDFDFE" transform="translate(226.7109375,87.38671875)"/>
<path d="M0 0 C4.96702439 2.80657069 9.25882565 7.39265129 11.8125 12.5 C12.61865402 20.75542531 12.98324845 28.00108173 7.59765625 34.76171875 C2.58954857 39.63832251 -3.03489356 41.60366318 -9.9375 41.8125 C-16.06682774 41.72236283 -20.45999267 40.05779577 -24.9453125 35.8515625 C-30.01572375 30.24226697 -31.63170739 25.61189289 -31.4296875 18.05859375 C-30.88128964 12.26503572 -29.27131105 8.1512328 -24.9375 4.1875 C-17.47993171 -1.52633625 -8.88563808 -3.87455149 0 0 Z " fill="#FDFBFD" transform="translate(192.1875,217.5)"/>
</svg>
